Coordinates
version=1
nRows=10
nColumns=65
inDegrees=yes

Units are S.I. units (second, meters, Newtons, ...)
If the header above contains a line with 'inDegrees', this indicates whether rotational values are in degrees (yes) or radians (no).

endheader
time	pelvis_tilt	pelvis_list	pelvis_rotation	pelvis_tx	pelvis_ty	pelvis_tz	hip_flexion_r	hip_adduction_r	hip_rotation_r	knee_angle_r	knee_flexion_r_beta	hip_flexion_l	hip_adduction_l	hip_rotation_l	knee_flexion_l	knee_flexion_l_beta	L5_S1_Flex_Ext	L5_S1_Lat_Bending	L5_S1_axial_rotation	L1_T12_Flex_Ext	L1_T12_Lat_Bending	L1_T12_axial_rotation	C7_T1_Flex_Ext	C7_T1_Lat_Bending	C7_T1_axial_rotation	C1_Skull_Flex_Ext	C1_Skull_Lat_Bending	C1_Skull_axial_rotation	stnclv_protraction_r	stnclv_elevation_r	arm_flex_r	arm_add_r	arm_rot_r	stnclv_protraction_l	stnclv_elevation_l	arm_flex_l	arm_add_l	arm_rot_l	elbow_flex_r	pro_sup_r	wrist_flex_r	wrist_dev_r	elbow_flex_l	pro_sup_l	wrist_flex_l	wrist_dev_l	ankle_angle_r	subtalar_angle_r	ankle_internal_rotation_r	chopart_flexion_r	chopart_inversion_r	chopart_internal_rotation_r	metatarsophalangeal_flexion_r	metatarsophalangeal_inversion_r	metatarsophalangeal_internal_rotation_r	ankle_flexion_l	ankle_inversion_l	ankle_internal_rotation_l	chopart_flexion_l	chopart_inversion_l	chopart_internal_rotation_l	metatarsophalangeal_flexion_l	metatarsophalangeal_inversion_l	metatarsophalangeal_internal_rotation_l
      5.44000000	    -22.26697272	     29.86483602	    286.64186227	      1.57128541	      0.78236134	      0.43385970	     48.22379503	    -20.48379721	    -12.11327286	    133.63340593	      2.33234292	     21.36011359	      1.64904443	    -13.96115879	     56.33383552	      0.98321091	    -17.54421648	      6.95319728	     -6.23880360	      6.86471141	      9.69747878	     -6.23880360	      0.00000000	      0.00000000	      0.00000000	      0.00000000	      0.00000000	      0.00000000	     -5.93844623	      3.32728404	    -39.64869420	    -32.83152139	    -15.84011751	      6.92180191	     18.26211927	     45.62597464	     -7.31400621	    -13.17314698	     40.78020052	     40.81303281	     -5.14681390	     -0.46084726	    121.39668785	      7.46247879	    -30.10297223	    -12.68449913	     -1.02602320	     -9.66466718	    -15.65392944	      0.00000000	     13.50484477	      0.00000000	      7.25961418	      0.00000000	      0.00000000	      7.32985115	     -1.20315852	     -0.16729003	      0.00000000	    -11.89742475	      0.00000000	     52.05944037	      0.00000000	      0.00000000
      5.44500000	    -22.97499558	     29.43991069	    287.87726018	      1.56609751	      0.78257878	      0.45076748	     50.82403011	    -20.97668203	    -11.08280705	    135.36434069	      2.36255343	     19.15363895	      0.33507167	    -13.61792341	     54.52997264	      0.95172756	    -17.57967961	      7.86340643	     -6.82602286	      6.71346243	      9.68419466	     -6.82602286	      0.00000000	      0.00000000	      0.00000000	      0.00000000	      0.00000000	      0.00000000	     -5.96539537	      4.96594420	    -40.82965905	    -32.85691771	    -14.83748942	      6.41596997	     20.46527540	     47.61813918	     -7.46773286	    -15.23916210	     42.56764081	     40.98281443	     -5.58852083	     -1.23134581	    122.57667200	      6.98027455	    -31.36025912	    -12.77020284	     -0.24621903	    -10.79226725	    -15.09804417	      0.00000000	     13.75185651	      0.00000000	      7.36506424	      0.00000000	      0.00000000	      7.38849372	     -1.04950955	      0.82201972	      0.00000000	    -11.63757787	      0.00000000	     52.11095162	      0.00000000	      0.00000000
      5.45000000	    -23.88797800	     29.05700782	    288.92146259	      1.56102943	      0.78306228	      0.46834341	     53.37368194	    -21.04203017	     -9.90104092	    136.71380673	      2.38610606	     16.96028547	     -1.23144050	    -13.47171820	     52.42520821	      0.91499249	    -17.33026587	      8.84604674	     -7.36765471	      6.26918710	      9.82982399	     -7.36765471	      0.00000000	      0.00000000	      0.00000000	      0.00000000	      0.00000000	      0.00000000	     -5.89032837	      6.46982154	    -41.90670287	    -33.26884841	    -13.77865677	      5.77819826	     22.89411350	     48.92287254	     -7.63889848	    -17.52061977	     44.41002424	     40.91275147	     -6.22449981	     -2.10007132	    123.84629078	      6.08432021	    -33.32750832	    -12.84173477	      1.09102319	    -11.59277171	    -14.06016719	      0.00000000	     14.21084702	      0.00000000	      7.42088840	      0.00000000	      0.00000000	      7.25705551	     -0.79904225	      1.84914175	      0.00000000	    -11.33628692	      0.00000000	     52.14744802	      0.00000000	      0.00000000
      5.45500000	    -25.28944624	     29.00750290	    289.94784192	      1.55579373	      0.78389247	      0.48643681	     55.98894551	    -20.41323545	     -8.71563534	    137.60758551	      2.40170544	     15.22167113	     -3.20432942	    -13.52032085	     50.06873975	      0.87386436	    -17.07282410	     10.14524473	     -7.64294701	      6.55704054	     10.15804762	     -7.64294701	      0.00000000	      0.00000000	      0.00000000	      0.00000000	      0.00000000	      0.00000000	     -5.98468991	      8.06558331	    -42.53240826	    -33.40169564	    -13.53366533	      4.96686309	     23.97444883	     50.25110231	     -8.31681669	    -18.62408870	     45.24363295	     40.86828079	     -6.37235000	     -2.37248284	    124.54380612	      5.84980807	    -33.79350212	    -12.87539273	      3.63560308	    -12.00865606	    -12.12181713	      0.00000000	     14.36340192	      0.00000000	      7.48742427	      0.00000000	      0.00000000	      6.72608388	     -0.39106332	      3.04916920	      0.00000000	    -11.10860185	      0.00000000	     52.12227917	      0.00000000	      0.00000000
      5.46000000	    -26.68937062	     29.05124015	    290.38120790	      1.55035990	      0.78528403	      0.50469870	     58.58137781	    -19.06893772	     -6.81038270	    138.19420388	      2.41194386	     13.46497836	     -5.14113023	    -14.02425957	     47.37491411	      0.82684823	    -15.90047272	     11.46517252	     -7.82953971	      5.48350958	     10.11033948	     -7.82953971	      0.00000000	      0.00000000	      0.00000000	      0.00000000	      0.00000000	      0.00000000	     -5.53445385	      9.29756829	    -43.82184367	    -34.38927589	    -11.30682307	      4.74899781	     27.08741061	     49.83454768	     -9.00271736	    -20.95704715	     47.31647219	     37.79090951	     -9.83960889	     -3.78242457	    126.38154366	      3.63747997	    -43.78891820	    -12.71449754	      7.71817425	     -9.69105407	     -9.38063707	      0.00000000	     12.99579871	      0.00000000	      5.68194828	      0.00000000	      0.00000000	      5.88051620	      0.44491504	      4.03948078	      0.00000000	    -11.08417918	      0.00000000	     52.30424810	      0.00000000	      0.00000000
      5.46500000	    -28.51922018	     29.49141495	    290.92773740	      1.54476329	      0.78709351	      0.52303875	     61.17368061	    -17.31857313	     -5.40180103	    138.29880263	      2.41376946	     12.31509975	     -7.23719378	    -14.52959190	     44.57642104	      0.77800532	    -15.23465915	     12.86722547	     -7.70183813	      5.81389146	     10.60436499	     -7.70183813	      0.00000000	      0.00000000	      0.00000000	      0.00000000	      0.00000000	      0.00000000	     -5.47369479	     10.83997139	    -44.33048419	    -34.54699700	    -11.13257806	      3.77655105	     27.76876184	     50.39682696	     -9.63199988	    -21.48996429	     47.94212058	     37.77831645	     -9.87631903	     -3.87936426	    126.66583258	      3.56285069	    -43.90964816	    -12.53905285	     12.33221478	     -9.69695366	     -6.36284176	      0.00000000	     13.27384297	      0.00000000	      5.87097317	      0.00000000	      0.00000000	      4.30682994	      0.89029415	      4.99770757	      0.00000000	    -10.78437242	      0.00000000	     52.22048444	      0.00000000	      0.00000000
      5.47000000	    -29.95392070	     30.23781257	    290.69403689	      1.53854670	      0.78858591	      0.54201386	     64.30874222	    -15.40289016	     -3.35265589	    138.23237051	      2.41261000	     11.04414032	     -8.88342040	    -15.73078371	     41.44779818	      0.72340055	    -13.33247396	     13.92230517	     -7.59511394	      4.59676229	     10.62936430	     -7.59511394	      0.00000000	      0.00000000	      0.00000000	      0.00000000	      0.00000000	      0.00000000	     -4.46388085	     12.67425254	    -45.00162545	    -34.04356551	     -9.92634992	      2.70204652	     29.19383662	     50.37898598	    -10.49616346	    -22.09113107	     49.46514605	     35.52585972	    -11.14280458	     -3.99712309	    127.52057788	      2.11028020	    -49.97703605	    -11.64841160	     16.76769039	     -3.92872365	     -4.27936630	      0.00000000	      9.25027219	      0.00000000	      2.19718928	      0.00000000	      0.00000000	      2.35083476	      2.51061017	      6.03170423	      0.00000000	    -11.37041213	      0.00000000	     52.73731848	      0.00000000	      0.00000000
      5.47500000	    -31.09383012	     30.85050767	    290.37563616	      1.53226646	      0.79005443	      0.56180693	     67.39301240	    -13.92847584	     -2.25048207	    137.87769334	      2.40641971	      9.46134143	    -10.18233870	    -16.84665574	     38.19024678	      0.66654555	    -12.47854181	     14.78878843	     -7.26674583	      4.68372139	     10.77267852	     -7.26674583	      0.00000000	      0.00000000	      0.00000000	      0.00000000	      0.00000000	      0.00000000	     -4.17541250	     14.23713633	    -45.65009668	    -33.77117557	     -9.47347967	      1.63827220	     29.92537648	     50.17537721	    -10.89693909	    -22.01241871	     50.34072791	     35.49582316	    -11.17749609	     -4.10547345	    127.72427201	      2.12315348	    -50.02740111	    -11.47250076	     19.20492607	     -3.67678853	     -3.43658784	      0.00000000	      9.36318234	      0.00000000	      2.16150016	      0.00000000	      0.00000000	      0.12062691	      3.07265248	      7.09314371	      0.00000000	    -10.90304566	      0.00000000	     52.64734905	      0.00000000	      0.00000000
      5.48000000	    -31.53100645	     31.14325966	    289.74743208	      1.52627779	      0.79120655	      0.58273570	     70.53291142	    -13.19964243	     -1.60727850	    137.39414343	      2.39798018	      7.18721439	    -10.79463513	    -17.78499582	     34.72796948	      0.60611741	    -11.82283138	     15.28750738	     -7.00624856	      4.57415396	     10.65551064	     -7.00624856	      0.00000000	      0.00000000	      0.00000000	      0.00000000	      0.00000000	      0.00000000	     -3.67354562	     15.67900903	    -46.33530603	    -33.29149066	     -8.97028940	      0.65992483	     30.75026730	     49.71763803	    -11.28871954	    -21.66898929	     51.12496741	     35.39817072	    -11.25035312	     -4.15030533	    127.77373941	      2.10685460	    -50.08121371	    -11.25768509	     19.69715952	     -3.92215110	     -4.11455400	      0.00000000	      9.23407042	      0.00000000	      2.03108373	      0.00000000	      0.00000000	     -2.39544934	      3.58527671	      8.03363744	      0.00000000	    -10.48770942	      0.00000000	     52.56916282	      0.00000000	      0.00000000
      5.48500000	    -31.07288037	     30.99030244	    288.57487740	      1.52023933	      0.79215213	      0.60515212	     73.60218716	    -12.97879306	     -1.14677535	    136.79835122	      2.38758164	      3.95489228	    -10.63246878	    -18.72607574	     30.97534462	      0.54062175	    -11.56015536	     15.31760131	     -6.86392284	      4.28186099	     10.14498882	     -6.86392284	      0.00000000	      0.00000000	      0.00000000	      0.00000000	      0.00000000	      0.00000000	     -2.72875681	     16.99300212	    -47.12423344	    -32.32194760	     -8.36337654	     -0.47179628	     31.65484835	     48.99957858	    -11.75751507	    -21.04975709	     51.83195032	     35.12562630	    -11.43700628	     -4.07335420	    127.68780458	      2.12795188	    -50.04533837	    -10.94948530	     18.11819781	     -4.96547130	     -5.99541534	      0.00000000	      8.95168355	      0.00000000	      2.05593114	      0.00000000	      0.00000000	     -5.08604893	      4.25335966	      8.88667211	      0.00000000	    -10.11634177	      0.00000000	     52.48876775	      0.00000000	      0.00000000
